<?xml version="1.0" encoding="UTF-8"?>
<svg xmlns="http://www.w3.org/2000/svg" xmlns:xlink="http://www.w3.org/1999/xlink" viewBox="0 0 25 25" width="25px" height="25px">
<g id="surface43354758">
<path style=" stroke:none;fill-rule:nonzero;fill:rgb(26.274511%,69.01961%,16.470589%);fill-opacity:1;" d="M 10.5 1.5 C 5.800781 1.5 2 5.300781 2 10 C 2 14.699219 5.800781 18.5 10.5 18.5 C 12.175781 18.5 13.730469 18.007812 15.046875 17.171875 L 21.1875 23.3125 L 23.3125 21.1875 L 17.25 15.140625 C 18.339844 13.710938 19 11.941406 19 10 C 19 5.300781 15.199219 1.5 10.5 1.5 Z M 10.5 3.5 C 14.097656 3.5 17 6.402344 17 10 C 17 13.597656 14.097656 16.5 10.5 16.5 C 6.902344 16.5 4 13.597656 4 10 C 4 6.402344 6.902344 3.5 10.5 3.5 Z M 10.5 3.5 "/>
</g>
</svg>
